<svg xmlns="http://www.w3.org/2000/svg" viewBox="0 0 64 64"><g id="Layer_23" data-name="Layer 23"><path d="M60.79,22a3.34,3.34,0,0,0-4.43-1.78l-4.83,2.13L35.92,17.11a1.05,1.05,0,0,0-.72,0l-3.65,1.6a1,1,0,0,0-.05,1.81l11.1,5.69-8.38,3.69-7.87-3.78a1,1,0,0,0-.84,0L22.44,27.5a1,1,0,0,0-.18,1.73L33.15,37a1.06,1.06,0,0,0,1,.1l25-11A3.24,3.24,0,0,0,60.79,22Zm-1.87,1.59a1.19,1.19,0,0,1-.63.67L33.85,35l-9-6.37,1-.46,7.87,3.78a1.58,1.58,0,0,0,.43.1,2.7,2.7,0,0,0,.41-.08l10.72-4.72a1.44,1.44,0,0,0,.32-.23h0a1,1,0,0,0-.27-1.58l-11.1-5.69,1.38-.61,15.6,5.21a1.23,1.23,0,0,0,.76-.05h0L57.16,22A1.27,1.27,0,0,1,58.92,23.56Z" id="id_101" style="fill: rgb(255, 255, 255);"></path><path d="M55.06,30.52a1,1,0,0,0-1.05.95C53,50.16,28.65,56.24,18.8,40.65c2-.28,9.39-3.41,7.59-5.39a1,1,0,0,0-1.41,0,13.73,13.73,0,0,1-7.19,3.54C8.11,17.42,36.68.72,50.64,19.63a1,1,0,0,0,1.65-1.14C37.1-2.12,5.88,15.52,15.71,39.12c-8,.91-16.57-5.5-5.21-9.48a1,1,0,1,0-.6-1.91c-3.18,1-5.46,2.64-6.42,4.63-2.67,7,8,9.56,13.21,8.66C27.14,59,54.78,52.63,56,31.57A1,1,0,0,0,55.06,30.52Z" id="id_102" style="fill: rgb(255, 255, 255);"></path></g></svg>